<svg viewBox="0 0 56 36" xmlns="http://www.w3.org/2000/svg" aria-label="PayPal" role="img">
	<rect fill="#fff" width="56" height="36" rx="3"/>
	<path d="M36.5 13.03L22.7 28.09h-5.06a.6.6 0 01-.56-.7L20.45 6c.08-.49.5-.84.99-.84h8.58c5.9.2 7.52 3.23 6.47 7.87l.02-.01z" fill="#002c8a"/>
	<path d="M36.73 11.64c2.11 1.12 2.6 3.23 1.9 6.04-.91 4.15-3.66 5.91-7.66 5.98l-1.13.07c-.42 0-.7.28-.77.7L28.15 30c-.07.5-.49.84-.98.84h-4.22a.6.6 0 01-.56-.7l1.55-10.06c.07-.35 12.8-8.43 12.8-8.43z" fill="#009be1"/>
	<path d="M23.85 20.57l1.4-8.93a.98.98 0 01.92-.78h6.75c1.62 0 2.81.28 3.8.78-.35 3.09-1.83 8.08-9 8.22h-3.1c-.35 0-.7.28-.77.7z" fill="#001f6b"/>
</svg>
