<svg viewBox="0 0 56 36" xmlns="http://www.w3.org/2000/svg" aria-label="Visa" role="img">
	<rect fill="#fff" width="56" height="36" rx="3"/>
	<path fill="#10357f" d="M21.49 11.15l-5.7 13.5h-3.7l-2.8-10.8c0-.5-.4-1-.8-1.2a15 15 0 00-3.4-1.1l.1-.4h5.9c.8 0 1.5.6 1.6 1.4l1.5 7.8 3.6-9.2h3.7zm14.4 9.1c0-3.6-4.9-3.8-4.9-5.3 0-.5.5-1 1.5-1.1 1.2-.1 2.4.1 3.4.6l.6-2.9c-1-.4-2.2-.6-3.3-.6-3.4 0-5.9 1.8-5.9 4.5 0 1.9 1.7 3 3.1 3.7 1.4.7 1.8 1.1 1.8 1.7 0 .9-1.1 1.3-2.1 1.3a9 9 0 01-3.6-.8l-.6 3c1.2.5 2.6.7 3.9.7 3.7-.2 6.1-2 6.1-4.8zm9.2 4.4h3.2l-2.8-13.5h-3c-.7 0-1.2.4-1.5 1l-5.2 12.5h3.7l.7-2h4.5l.4 2zm-3.9-4.8l1.8-5.1 1.1 5.1h-2.9zm-14.7-8.7l-2.9 13.5h-3.5l2.9-13.5h3.5z"/>
</svg>
