<svg viewBox="0 0 56 36" fill="#fff" xmlns="http://www.w3.org/2000/svg" aria-label="American Express" role="img">
	<rect fill="#0071ce" width="56" height="36" rx="3"/>
	<path d="M56 31.7h-4.7L48.8 29l-2.5 2.7H30.9V19.2h-5l6.2-14.1h6l2.2 4.8V5.1h7.4L49 8.8l1.3-3.7H56v1.6h-4.5L49 13.5l-2.4-6.8h-4.7v11L37 6.8h-3.8l-4.8 10.9h3.3l.9-2.2h5l.9 2.2h6.4V10l2.8 7.7h2.6l2.8-7.7v7.7H56v1.6h-3.9l-3.2 3.5-3.2-3.5H32.5v11h13.1l3.2-3.5 3.2 3.5h4l-5.2-5.5 5.2-5.5v2.5l-2.8 3 2.8 3"/>
	<path d="M35 9.5l1.5 3.6h-3zM41.8 19.3l5.2 5.5-5.2 5.5v-2.5h-6.3v-1.7h6.2v-2.5h-6.2v-1.8h6.3z"/>
</svg>
