<svg viewBox="0 0 56 36" xmlns="http://www.w3.org/2000/svg" aria-label="Discover" role="img">
	<defs>
		<linearGradient id="dscvr" gradientTransform="rotate(45 2 1)">
			<stop offset=".2" stop-color="#f37120"/>
			<stop offset="1" stop-color="#f3a920"/>
		</linearGradient>
	</defs>
	<rect fill="#fff" width="56" height="36" rx="3"/>
	<path fill="#f37521" d="M56 20.3S40.86 31.15 13.03 36H53a3 3 0 003-3V20.3z"/>
	<path fill="#231f20" d="M5.35 11.32H3v8.16h2.25c1.02.1 2.15-.31 2.97-.93a3.89 3.89 0 001.43-3.1 4.15 4.15 0 00-3.89-4.13h-.4zm1.84 6.2c-.6.51-1.43.72-2.14.61h-.41v-5.47h.4c.77-.07 1.54.15 2.15.62.62.52.93 1.24.93 2.06 0 .93-.31 1.66-.93 2.17zm3.18-6.2h1.53v8.16h-1.53v-8.16zm5.42 3.1c-.92-.31-1.23-.62-1.23-1.04 0-.41.51-.93 1.13-.93.5 0 .92.21 1.23.62l.81-1.13a3.4 3.4 0 00-2.35-.93 2.41 2.41 0 00-2.56 2.27v.1c0 1.14.51 1.76 1.95 2.27l1.12.52c.3.2.51.52.51.83 0 .62-.5 1.13-1.12 1.13h-.1c-.72 0-1.44-.41-1.74-1.13l-1.03 1.03a3.17 3.17 0 002.87 1.55 2.63 2.63 0 002.76-2.48v-.2c.1-1.14-.4-1.76-2.25-2.48zm2.86 1.03a4.17 4.17 0 002.58 3.94c.51.2 1.06.3 1.62.3h.1c.72 0 1.33-.21 1.95-.52V17.3a2.7 2.7 0 01-1.95.93 2.8 2.8 0 01-2.76-2.58v-.21c0-1.55 1.12-2.8 2.56-2.8h.1c.72 0 1.53.32 1.94.94v-1.96a4.2 4.2 0 00-1.94-.52 4.16 4.16 0 00-3.9 2.69c-.21.52-.3 1.08-.3 1.65zm18.83 1.34l-2.15-5.47H33.6l3.38 8.36h.92l3.48-8.36h-1.74l-2.15 5.47zm4.6 2.69h4.5v-1.35h-2.96v-2.17h2.86v-1.44h-2.86v-1.76h2.97v-1.44h-4.5v8.16zm10.75-5.78c0-1.56-1.02-2.38-2.87-2.38h-2.35v8.16h1.53v-3.31h.2l2.16 3.3h1.94l-2.56-3.4c1.23-.21 2.05-1.14 1.95-2.38zm-3.17 1.44h-.52v-2.48h.52c1.02 0 1.53.41 1.53 1.24 0 .82-.51 1.24-1.53 1.24z"/>
	<circle fill="url(#dscvr)" cx="29.85" cy="15.55" r="4.33"/>
</svg>
